<svg width="24" height="24" viewBox="0 0 24 24" fill="none" xmlns="http://www.w3.org/2000/svg">
<path d="M16 14.6667V17.3333C16 17.5101 15.9298 17.6797 15.8047 17.8047C15.6797 17.9298 15.5101 18 15.3333 18H6.66667C6.48986 18 6.32029 17.9298 6.19526 17.8047C6.07024 17.6797 6 17.5101 6 17.3333V6.66667C6 6.48986 6.07024 6.32029 6.19526 6.19526C6.32029 6.07024 6.48986 6 6.66667 6H11.3333" stroke="#727272" stroke-width="1.5" stroke-linecap="round" stroke-linejoin="round"/>
<path d="M18.0013 8L14.0013 12M13.3346 15.3333H8.66797H13.3346ZM11.3346 12.6667H8.66797H11.3346Z" stroke="#727272" stroke-width="1.5" stroke-linecap="round" stroke-linejoin="round"/>
<path d="M14.3008 8.33398H14.3674" stroke="#727272" stroke-width="2" stroke-linecap="round" stroke-linejoin="round"/>
<path d="M17.6328 11.666H17.6995" stroke="#727272" stroke-width="2" stroke-linecap="round" stroke-linejoin="round"/>
</svg>
